# xmcd CD database file
# Copyright (C) 1993-1996 Ti Kan
#
# Track frame offsets:
#  150
#  23640
#  39354
#  54273
#  68082
#  85153
#  100822
#  115499
#  129022
#  145628
#  157688
#  171516
#  186186
#  199269
#  216193
#  228706
#
# Disc length: 3224 seconds
#
# Revision: 1
# Processed by: cddbd v1.5.1PL0 Copyright (c) Steve Scherf et al.
# Submitted via: Advanced CD Ripper Pro 2.0
#
DISCID=d10c9610
DTITLE=Vários - Festa Remix
DYEAR=2003
DGENRE=
TTITLE0=Uma neguinha me esperando_É sábado dia
TTITLE1=Acordando a neguinha
TTITLE2=Vem cá morena
TTITLE3=De balanço na vanera
TTITLE4=Mexe, mexe
TTITLE5=No calor de seus braços
TTITLE6=Prá farrear
TTITLE7=Cutuca que cutuca
TTITLE8=Pentelhando no fandango
TTITLE9=No sapateio
TTITLE10=Surungo de candieiro
TTITLE11=Me tira do castigo
TTITLE12=Toca toca gaiteiro
TTITLE13=Vaneira dos garotos
TTITLE14=Madrugando
TTITLE15=A dá com o pau
EXTD=
EXTT0=
EXTT1=
EXTT2=
EXTT3=
EXTT4=
EXTT5=
EXTT6=
EXTT7=
EXTT8=
EXTT9=
EXTT10=
EXTT11=
EXTT12=
EXTT13=
EXTT14=
EXTT15=
PLAYORDER=
